<?xml version="1.0" standalone="no"?>
<!DOCTYPE svg PUBLIC "-//W3C//DTD SVG 20010904//EN"
 "http://www.w3.org/TR/2001/REC-SVG-20010904/DTD/svg10.dtd">
<svg version="1.0" xmlns="http://www.w3.org/2000/svg"
 width="300.000000pt" height="324.000000pt" viewBox="0 0 300.000000 324.000000"
 preserveAspectRatio="xMidYMid meet">
<metadata>
Created by potrace 1.10, written by Peter Selinger 2001-2011
</metadata>
<g transform="translate(0.000000,324.000000) scale(0.100000,-0.100000)"
fill="#000000" stroke="none">
<path d="M1620 2990 c0 -5 5 -10 10 -10 6 0 10 5 10 10 0 6 -4 10 -10 10 -5 0
-10 -4 -10 -10z"/>
<path d="M1370 2954 c-119 -11 -214 -30 -278 -54 -114 -44 -137 -74 -82 -107
17 -9 30 -21 30 -25 0 -12 -13 -9 -34 7 -28 21 -52 19 -70 -7 -21 -30 -20 -37
7 -47 l22 -9 -26 -10 c-74 -29 -215 -130 -321 -230 -109 -103 -232 -261 -222
-286 8 -20 114 -70 152 -71 26 -1 31 2 27 16 -3 9 -1 20 5 24 10 6 14 -1 24
-46 6 -30 37 -41 168 -64 44 -8 82 -16 82 -17 1 -2 15 -32 31 -67 28 -60 67
-102 82 -87 4 3 15 -1 25 -11 34 -31 29 -6 -7 33 -20 21 -45 59 -56 83 -23 52
-22 51 -6 51 6 0 20 -20 30 -45 10 -24 34 -65 53 -90 19 -25 33 -45 30 -45
-15 0 65 -65 105 -86 27 -13 58 -32 70 -42 11 -9 22 -16 25 -14 3 2 15 -3 27
-11 12 -8 37 -16 56 -19 39 -6 180 15 225 33 36 15 180 151 201 190 19 35 45
151 45 199 0 43 2 44 84 56 l49 7 -6 -58 c-5 -45 -14 -71 -43 -112 -42 -61
-170 -190 -196 -199 -10 -3 -18 -10 -18 -15 0 -12 3 -11 32 4 33 17 52 33 124
104 45 45 68 61 79 56 15 -5 16 -1 10 25 -5 25 -2 38 15 59 17 22 21 39 19 85
l-2 57 119 62 c212 109 364 235 364 302 0 29 -221 144 -380 199 -87 30 -304
78 -352 78 -32 0 -37 15 -8 23 29 7 25 19 -17 46 l-36 23 -28 -33 c-15 -19
-31 -31 -35 -26 -4 4 2 17 14 30 30 31 29 73 0 81 -23 6 -142 6 -208 0z m200
-36 c0 -43 -67 -124 -87 -105 -2 3 -21 -6 -41 -19 -20 -14 -45 -23 -55 -20
-10 2 -34 -5 -53 -16 -30 -17 -38 -19 -64 -8 -16 7 -36 10 -44 7 -9 -4 -16 4
-20 21 -7 33 -23 59 -31 50 -3 -3 0 -22 9 -41 13 -31 13 -36 -1 -41 -16 -7
-52 0 -98 17 -29 10 -75 51 -75 65 0 4 26 20 59 35 85 40 270 73 429 76 68 1
72 0 72 -21z m79 -57 c20 -13 9 -23 -53 -56 -31 -16 -56 -33 -56 -37 0 -12 8
-10 38 9 26 17 26 17 13 0 -21 -27 -71 -60 -79 -53 -3 4 0 11 8 17 13 8 13 10
0 19 -22 14 -29 12 -23 -9 3 -14 -2 -20 -22 -25 -20 -5 -25 -11 -20 -24 3 -9
3 -13 -1 -10 -4 4 -15 1 -26 -6 -13 -9 -36 -12 -69 -9 -33 3 -49 1 -49 -7 0
-6 -5 -8 -10 -5 -6 4 -8 11 -5 16 4 5 4 9 1 9 -2 0 -11 3 -20 6 -20 8 -21 -10
-2 -29 13 -12 5 -14 -57 -11 -89 4 -88 4 -57 15 20 6 14 8 -25 7 -60 -2 -125
11 -125 24 0 5 9 18 19 30 15 16 27 19 48 14 79 -19 101 -22 132 -15 18 4 46
3 62 -3 20 -7 35 -6 56 5 15 8 44 18 63 22 19 4 46 13 60 20 87 42 105 50 120
47 10 -1 25 9 34 23 18 27 24 29 45 16z m61 -76 c167 -23 460 -109 460 -136 0
-4 -16 -21 -36 -36 -19 -15 -44 -35 -53 -43 -10 -8 -66 -42 -125 -74 -58 -33
-104 -62 -102 -64 10 -9 186 92 251 143 39 30 76 58 83 61 13 7 89 -28 164
-76 l48 -30 -29 -42 c-43 -63 -134 -135 -264 -206 -32 -18 -62 -30 -67 -27 -6
4 -10 1 -10 -4 0 -24 -32 -8 -92 44 -34 30 -66 55 -70 55 -19 0 -3 -19 57 -65
36 -27 65 -53 65 -56 0 -9 -41 -22 -60 -19 -8 1 -11 -2 -7 -6 9 -10 -75 -33
-123 -34 -27 0 -32 -3 -20 -11 11 -8 9 -9 -10 -4 -28 8 -46 23 -130 108 -32
31 -63 57 -70 57 -9 0 -8 -5 3 -18 15 -17 15 -19 -3 -35 -28 -24 -33 -21 -25
13 4 19 3 30 -4 30 -6 0 -13 -12 -17 -27 -35 -154 -51 -183 -102 -184 -30 0
-33 -2 -17 -9 18 -8 17 -9 -7 -9 -16 -1 -28 3 -28 8 0 6 -12 6 -32 0 -18 -5
-53 -9 -78 -10 -37 -1 -41 -2 -20 -9 17 -6 -3 -9 -65 -11 -110 -3 -113 -3
-150 5 -16 3 -85 10 -153 16 -68 5 -135 13 -149 16 -17 5 -24 3 -19 -4 3 -6
-1 -9 -11 -7 -10 2 -26 4 -36 4 -9 1 -22 13 -28 29 -6 15 -15 35 -20 45 -7 13
-1 32 27 78 20 32 35 62 32 65 -3 2 -20 -19 -38 -48 -39 -62 -89 -118 -106
-118 -6 0 -32 12 -58 26 -37 21 -44 29 -37 43 25 47 106 145 181 220 98 97
162 148 280 221 47 29 88 58 92 64 5 7 8 5 8 -6 0 -9 2 -22 5 -30 3 -7 -10
-23 -27 -35 -18 -13 -27 -23 -20 -23 7 0 12 -14 12 -35 0 -30 -4 -35 -27 -41
-16 -3 -37 -10 -48 -15 -12 -6 -32 -6 -52 0 -17 5 -34 6 -38 3 -3 -3 -16 -7
-28 -9 -28 -5 -96 -49 -104 -68 -3 -8 -12 -15 -20 -15 -8 0 -12 -4 -8 -9 3 -5
1 -12 -5 -16 -5 -3 -10 -15 -10 -26 0 -16 -5 -18 -25 -13 -42 10 -28 -6 28
-31 56 -26 187 -51 305 -58 69 -4 72 -3 66 16 -5 16 -3 19 12 13 18 -6 18 -6
1 8 -21 16 -20 57 1 64 7 2 16 -5 19 -17 6 -24 23 -29 23 -7 0 41 -29 57 -74
40 -18 -7 -22 -34 -5 -34 8 0 8 -4 0 -14 -8 -10 -9 -16 -1 -21 5 -3 10 -14 10
-24 0 -17 -6 -17 -107 -5 -92 11 -164 24 -220 40 -42 11 15 106 83 139 43 20
143 22 159 3 6 -7 23 -24 37 -37 22 -19 30 -21 41 -12 21 17 75 2 97 -26 15
-19 17 -30 9 -50 -7 -18 -6 -30 1 -37 7 -7 10 -2 10 16 0 15 4 28 9 30 5 2 2
20 -7 40 -18 41 -45 55 -104 52 -21 0 -38 3 -38 7 0 5 15 9 33 9 23 0 28 3 18
9 -8 6 -24 6 -38 0 -25 -9 -73 4 -73 20 0 19 94 19 139 -1 24 -10 56 -18 70
-18 15 0 45 -9 66 -20 55 -28 111 -36 141 -20 21 12 26 11 39 -6 8 -10 15 -23
15 -29 0 -5 15 -19 33 -30 21 -13 33 -30 35 -48 3 -26 6 -27 40 -21 71 13 207
49 302 81 10 3 5 9 -17 18 -39 16 -75 71 -67 100 3 11 22 34 43 52 20 17 33
34 29 39 -4 4 -20 -5 -34 -19 -15 -15 -34 -27 -43 -27 -10 0 -27 -13 -39 -30
-36 -49 -76 -63 -151 -56 -87 8 -114 32 -109 98 2 27 0 48 -4 48 -13 0 -20
-68 -8 -89 15 -30 7 -38 -56 -57 -60 -17 -82 -14 -150 18 -24 11 -51 18 -59
14 -21 -8 -102 29 -114 53 -17 31 -13 66 9 86 19 17 23 17 100 -5 65 -18 93
-21 147 -16 92 9 214 41 271 69 62 31 117 81 107 98 -6 9 -2 10 16 6 13 -3 44
-9 69 -12z m-701 -29 c27 -15 19 -24 -22 -24 -29 1 -42 12 -32 28 8 13 25 12
54 -4z m488 -42 c-3 -3 -12 -4 -19 -1 -8 3 -5 6 6 6 11 1 17 -2 13 -5z m198
-291 c15 -14 14 -17 -5 -30 -11 -8 -27 -12 -35 -9 -8 3 -15 2 -15 -2 0 -4 -39
-16 -86 -26 l-86 -18 -16 24 c-9 13 -26 33 -38 45 -12 12 -19 24 -16 27 3 3
-2 6 -11 6 -9 0 -17 5 -17 10 0 6 5 10 11 10 5 0 7 5 3 11 -4 7 3 6 17 -2 13
-7 29 -14 34 -15 50 -12 121 -24 134 -24 14 0 14 2 1 10 -13 9 -13 10 0 10 8
1 31 12 50 24 l35 23 12 -29 c7 -16 19 -36 28 -45z m-69 -178 c3 -10 -90 -75
-107 -75 -18 0 -8 16 33 52 41 36 68 44 74 23z m54 -51 c0 -19 -46 -83 -70
-97 -34 -21 -134 -24 -127 -4 5 12 6 13 47 3 16 -4 37 1 60 15 33 20 33 22 15
36 -20 14 -19 14 5 33 14 11 21 20 15 20 -5 0 -3 4 4 9 14 9 51 -2 51 -15z
m68 -60 c5 -2 -28 -186 -39 -222 -6 -19 -40 -64 -75 -101 -57 -60 -72 -70
-127 -85 -34 -10 -92 -20 -128 -23 -62 -5 -70 -3 -155 38 -106 51 -193 132
-242 225 l-32 61 118 2 c121 1 229 13 342 37 41 8 68 10 74 4 14 -14 68 -12
115 5 49 17 62 29 80 73 l14 33 26 -23 c14 -13 27 -24 29 -24z m-182 -10 c-22
-15 -57 -7 -49 12 3 8 8 13 10 10 3 -3 12 2 21 10 14 14 16 14 25 -2 7 -13 5
-20 -7 -30z m-793 -51 c-7 -2 -19 -2 -25 0 -7 3 -2 5 12 5 14 0 19 -2 13 -5z
m584 1 c-3 -3 -12 -4 -19 -1 -8 3 -5 6 6 6 11 1 17 -2 13 -5z m-457 -14 c22
-7 22 -8 5 -11 -23 -3 -36 -1 -85 10 l-35 9 45 0 c25 0 56 -4 70 -8z"/>
<path d="M1425 2914 c-5 -1 -49 -8 -97 -14 -49 -7 -85 -16 -82 -21 3 -5 1 -9
-5 -9 -5 0 -11 4 -13 9 -3 9 -112 -9 -124 -22 -19 -18 150 -6 283 21 49 10 94
17 101 14 18 -6 14 -22 -5 -23 -10 0 -36 -7 -58 -14 -34 -12 -36 -14 -10 -11
17 2 39 7 49 11 16 7 18 5 13 -8 -3 -9 -3 -17 2 -17 12 0 31 48 25 64 -4 11 4
16 28 19 18 2 4 4 -32 4 -36 0 -69 -1 -75 -3z"/>
<path d="M1314 2838 c-30 -5 -51 -14 -51 -22 0 -10 7 -10 36 0 49 18 62 17 59
-2 -2 -10 3 -19 10 -21 8 -3 12 6 12 26 0 17 -3 30 -7 30 -5 -1 -31 -6 -59
-11z"/>
<path d="M1046 2822 c-3 -5 1 -15 9 -22 16 -14 20 -3 6 19 -5 8 -11 9 -15 3z"/>
<path d="M1396 2703 c-9 -22 -8 -22 19 -10 30 14 32 22 6 24 -11 1 -22 -5 -25
-14z"/>
<path d="M1675 2754 c49 -17 85 -56 85 -91 0 -24 1 -25 18 -11 9 9 33 18 52
22 28 5 38 13 47 37 10 26 10 30 -3 25 -9 -3 -18 -6 -20 -6 -2 0 -4 -7 -4 -15
0 -29 -38 -19 -120 33 -19 12 -48 22 -65 21 -29 0 -29 -1 10 -15z m115 -54 c0
-5 -4 -10 -10 -10 -5 0 -10 5 -10 10 0 6 5 10 10 10 6 0 10 -4 10 -10z"/>
<path d="M1616 2714 c-5 -13 -3 -14 6 -7 7 6 20 13 28 16 10 4 8 6 -6 6 -12 1
-25 -6 -28 -15z"/>
<path d="M1912 2705 c-14 -31 -15 -55 -3 -55 10 0 23 32 26 63 2 25 -10 21
-23 -8z"/>
<path d="M1701 2634 c-10 -27 -17 -34 -29 -29 -13 5 -14 3 -5 -6 6 -6 18 -9
26 -6 17 6 40 64 28 71 -4 3 -13 -11 -20 -30z"/>
<path d="M1520 2636 c0 -8 7 -16 15 -20 13 -4 14 -2 5 14 -13 23 -20 26 -20 6z"/>
<path d="M1804 2625 c-22 -17 -12 -19 33 -6 21 6 35 5 44 -2 10 -10 10 -8 0 6
-16 21 -50 22 -77 2z"/>
<path d="M1430 2607 c0 -5 7 -7 15 -3 8 3 15 1 15 -4 0 -6 9 -10 21 -10 12 0
19 5 17 13 -5 14 -68 19 -68 4z"/>
<path d="M2035 2610 c-3 -5 -1 -10 4 -10 6 0 11 5 11 10 0 6 -2 10 -4 10 -3 0
-8 -4 -11 -10z"/>
<path d="M2170 2600 c-105 -84 -290 -185 -323 -176 -9 2 -15 0 -12 -5 3 -4 -6
-11 -20 -15 -14 -3 -25 -9 -25 -13 0 -4 -39 -20 -87 -36 -48 -16 -82 -30 -77
-32 36 -12 423 155 469 203 5 5 29 23 52 38 45 30 71 56 57 56 -5 0 -20 -9
-34 -20z"/>
<path d="M1010 2600 c0 -5 5 -10 11 -10 5 0 7 5 4 10 -3 6 -8 10 -11 10 -2 0
-4 -4 -4 -10z"/>
<path d="M1105 2583 c0 -22 -5 -29 -23 -31 -13 -2 -33 5 -44 15 -16 14 -20 14
-16 3 7 -24 72 -41 108 -29 32 12 41 28 13 25 -11 0 -18 6 -18 18 0 11 -5 21
-10 23 -6 2 -11 -9 -10 -24z"/>
<path d="M1622 2598 c5 -15 28 -23 28 -10 0 5 -7 13 -16 16 -10 4 -14 1 -12
-6z"/>
<path d="M1595 2570 c3 -5 8 -10 11 -10 2 0 4 5 4 10 0 6 -5 10 -11 10 -5 0
-7 -4 -4 -10z"/>
<path d="M2230 2560 c20 -13 33 -13 25 0 -3 6 -14 10 -23 10 -15 0 -15 -2 -2
-10z"/>
<path d="M1560 2550 c0 -5 5 -10 11 -10 5 0 7 5 4 10 -3 6 -8 10 -11 10 -2 0
-4 -4 -4 -10z"/>
<path d="M1725 2539 c-4 -6 -4 -26 0 -45 6 -36 41 -59 74 -51 10 3 4 9 -17 17
-34 13 -56 48 -46 75 7 17 -2 20 -11 4z"/>
<path d="M1170 2525 c0 -2 13 -11 30 -20 33 -17 80 -20 80 -5 0 6 -13 10 -29
10 -16 0 -41 4 -55 10 -14 5 -26 7 -26 5z"/>
<path d="M1300 2509 c0 -5 5 -7 10 -4 6 3 10 8 10 11 0 2 -4 4 -10 4 -5 0 -10
-5 -10 -11z"/>
<path d="M1538 2513 c7 -3 16 -2 19 1 4 3 -2 6 -13 5 -11 0 -14 -3 -6 -6z"/>
<path d="M2100 2490 c0 -5 5 -10 12 -10 6 0 26 -11 44 -25 18 -14 35 -25 38
-25 3 0 15 -9 26 -20 11 -11 25 -20 32 -20 17 0 -58 64 -104 89 -46 24 -48 25
-48 11z"/>
<path d="M755 2458 c-42 -23 -75 -62 -74 -87 0 -19 2 -22 7 -9 8 20 59 78 70
79 52 6 70 6 85 2 25 -6 21 -23 -6 -23 -29 0 -53 -40 -42 -67 7 -15 9 -13 14
12 5 23 14 33 41 42 19 7 31 12 26 12 -5 1 -3 7 3 15 23 27 -82 48 -124 24z"/>
<path d="M1080 2466 c0 -2 7 -7 16 -10 8 -3 12 -2 9 4 -6 10 -25 14 -25 6z"/>
<path d="M1113 2433 c9 -2 25 -2 35 0 9 3 1 5 -18 5 -19 0 -27 -2 -17 -5z"/>
<path d="M2126 2427 c3 -10 9 -15 12 -12 3 3 0 11 -7 18 -10 9 -11 8 -5 -6z"/>
<path d="M886 2405 c3 -17 -1 -27 -11 -31 -17 -7 -10 -24 10 -24 20 0 37 36
30 60 -10 30 -35 25 -29 -5z"/>
<path d="M1276 2423 c-3 -3 2 -11 11 -18 25 -19 9 -49 -22 -41 -20 5 -25 3
-25 -13 0 -16 5 -18 33 -14 38 6 37 4 42 34 5 23 -26 64 -39 52z"/>
<path d="M1225 2410 c-3 -5 -1 -10 4 -10 6 0 11 5 11 10 0 6 -2 10 -4 10 -3 0
-8 -4 -11 -10z"/>
<path d="M1186 2384 c-9 -24 -7 -27 9 -10 17 17 19 26 6 26 -5 0 -12 -7 -15
-16z"/>
<path d="M1880 2386 c0 -2 7 -9 15 -16 13 -11 14 -10 9 4 -5 14 -24 23 -24 12z"/>
<path d="M2138 2326 c-37 -23 -73 -48 -80 -56 -9 -9 -4 -8 14 3 15 9 44 26 65
38 33 18 87 61 73 58 -3 -1 -35 -20 -72 -43z"/>
<path d="M1351 2339 c-11 -19 -10 -20 8 -14 12 3 21 2 21 -4 0 -9 -49 -17
-140 -24 -23 -1 -34 -7 -32 -15 2 -10 -14 -13 -65 -12 -91 2 -93 2 -93 -11 0
-23 399 7 440 32 16 10 -44 6 -114 -7 -29 -5 -37 -4 -32 4 4 7 22 12 39 13 18
0 26 3 20 6 -7 2 -13 10 -13 18 0 7 -6 17 -13 23 -10 8 -16 6 -26 -9z m-28
-66 c-7 -2 -21 -2 -30 0 -10 3 -4 5 12 5 17 0 24 -2 18 -5z"/>
<path d="M565 2330 c-3 -6 1 -7 9 -4 18 7 21 14 7 14 -6 0 -13 -4 -16 -10z"/>
<path d="M1180 2320 c0 -5 5 -10 11 -10 5 0 7 5 4 10 -3 6 -8 10 -11 10 -2 0
-4 -4 -4 -10z"/>
<path d="M610 2305 c-9 -10 -9 -15 -1 -15 6 0 11 4 11 9 0 5 8 12 18 14 14 4
14 5 1 6 -9 0 -22 -6 -29 -14z"/>
<path d="M992 2233 c-29 -82 -36 -110 -24 -98 5 6 19 35 30 65 11 30 25 54 31
53 13 -3 13 -1 5 21 -11 28 -21 18 -42 -41z"/>
<path d="M820 2269 c0 -5 5 -7 10 -4 6 3 10 8 10 11 0 2 -4 4 -10 4 -5 0 -10
-5 -10 -11z"/>
<path d="M855 2272 c-2 -2 -1 -10 2 -18 3 -8 1 -14 -5 -14 -11 0 -65 -120 -57
-128 7 -7 6 -8 46 76 l34 74 52 -4 c29 -2 49 0 45 4 -7 7 -111 15 -117 10z"/>
<path d="M1880 2268 c0 -9 7 -19 16 -22 15 -6 15 -4 3 11 -7 10 -15 20 -16 22
-2 2 -3 -3 -3 -11z"/>
<path d="M718 2253 c6 -2 18 -2 25 0 6 3 1 5 -13 5 -14 0 -19 -2 -12 -5z"/>
<path d="M1771 2225 c33 -36 46 -45 33 -22 -12 21 -47 57 -56 57 -5 0 6 -16
23 -35z"/>
<path d="M807 2243 c-4 -3 -7 -11 -7 -17 0 -6 5 -5 12 2 6 6 9 14 7 17 -3 3
-9 2 -12 -2z"/>
<path d="M465 2220 c-3 -5 -1 -10 4 -10 6 0 11 5 11 10 0 6 -2 10 -4 10 -3 0
-8 -4 -11 -10z"/>
<path d="M525 2220 c3 -5 11 -10 16 -10 6 0 7 5 4 10 -3 6 -11 10 -16 10 -6 0
-7 -4 -4 -10z"/>
<path d="M1090 2185 c-7 -25 -10 -48 -8 -51 3 -2 11 16 17 42 15 61 8 68 -9 9z"/>
<path d="M1156 2221 c-4 -5 -2 -12 3 -15 5 -4 12 -2 15 3 4 5 2 12 -3 15 -5 4
-12 2 -15 -3z"/>
<path d="M500 2206 c0 -2 7 -9 15 -16 9 -7 15 -8 15 -2 0 5 -7 12 -15 16 -8 3
-15 4 -15 2z"/>
<path d="M1357 2168 c-3 -18 -1 -37 4 -42 5 -6 9 7 9 32 0 50 -6 54 -13 10z"/>
<path d="M1180 2126 c0 -8 7 -16 15 -20 9 -3 15 0 15 8 0 8 -7 16 -15 20 -9 3
-15 0 -15 -8z"/>
<path d="M1071 2104 c0 -11 3 -14 6 -6 3 7 2 16 -1 19 -3 4 -6 -2 -5 -13z"/>
<path d="M1711 2094 c0 -11 3 -14 6 -6 3 7 2 16 -1 19 -3 4 -6 -2 -5 -13z"/>
<path d="M1693 2044 c-7 -11 -15 -43 -19 -70 -3 -27 -10 -59 -15 -72 -14 -36
-11 -49 6 -25 17 24 48 148 43 172 -3 13 -6 12 -15 -5z"/>
<path d="M1591 2029 c-14 -6 -56 -14 -95 -20 -39 -5 -80 -11 -91 -14 -11 -2
-27 -4 -35 -4 -8 -1 -10 -4 -5 -10 6 -5 58 0 125 11 151 25 169 29 175 38 6
10 -46 10 -74 -1z"/>
<path d="M1275 2016 c31 -14 45 -12 45 5 0 5 -17 9 -37 9 l-38 -1 30 -13z"/>
<path d="M1029 1984 c30 -22 131 -31 131 -12 0 10 -12 12 -46 9 -25 -2 -51 2
-57 8 -6 6 -20 11 -31 11 -19 0 -19 -1 3 -16z"/>
<path d="M1183 1978 c-6 -13 -6 -35 -2 -52 5 -16 6 -34 2 -39 -3 -5 6 -2 20 7
16 11 42 16 71 15 52 -3 54 -2 65 39 13 43 -7 59 -39 32 -13 -11 -28 -20 -35
-20 -6 0 -21 -9 -34 -21 -27 -26 -36 -19 -32 27 3 40 -2 43 -16 12z m137 -38
c-7 -13 -21 -20 -40 -20 -38 0 -39 15 -2 28 45 17 54 15 42 -8z"/>
<path d="M1248 1843 c7 -3 16 -2 19 1 4 3 -2 6 -13 5 -11 0 -14 -3 -6 -6z"/>
<path d="M1225 1770 c3 -5 8 -10 11 -10 2 0 4 5 4 10 0 6 -5 10 -11 10 -5 0
-7 -4 -4 -10z"/>
<path d="M2361 2405 c-11 -19 -16 -35 -11 -35 13 0 13 -32 1 -62 -6 -13 -13
-58 -16 -101 -4 -42 -11 -75 -16 -72 -5 4 -6 -1 -2 -10 8 -22 -17 -38 -34 -23
-8 6 -16 8 -20 4 -4 -3 8 -12 25 -18 18 -7 32 -15 32 -18 0 -3 -11 -18 -25
-34 -28 -32 -32 -48 -12 -40 26 10 54 59 61 109 12 81 43 335 40 335 -1 0 -11
-16 -23 -35z"/>
<path d="M2690 2221 c0 -6 4 -13 10 -16 6 -3 7 1 4 9 -7 18 -14 21 -14 7z"/>
<path d="M2515 2181 c-40 -19 -53 -34 -87 -104 -12 -23 -39 -51 -73 -73 -47
-31 -59 -35 -93 -29 -38 6 -41 5 -68 -35 -32 -47 -74 -76 -96 -67 -8 3 -25 37
-38 76 -12 39 -28 71 -34 71 -15 0 -129 -90 -123 -97 3 -2 15 0 26 7 12 6 21
7 21 3 0 -4 5 -1 10 7 7 12 12 12 21 3 17 -17 20 -46 6 -55 -8 -5 -6 -8 6 -8
9 0 17 -7 17 -15 0 -17 -26 -20 -35 -5 -5 8 -11 8 -19 1 -15 -12 -63 -15 -93
-6 -15 5 -24 2 -31 -12 -13 -23 9 -56 34 -51 27 5 27 -23 0 -57 -21 -26 -30
-30 -73 -29 -48 2 -48 2 -18 -11 25 -11 36 -11 65 1 33 14 34 14 18 -2 -11
-11 -34 -18 -65 -18 -52 -1 -83 -20 -76 -46 8 -30 -32 -52 -126 -67 -44 -7
-21 -23 34 -23 62 0 118 18 111 37 -5 11 -2 14 10 9 8 -3 24 -2 33 4 27 14 32
2 15 -39 -13 -32 -13 -40 1 -78 9 -24 25 -48 35 -53 11 -6 19 -24 22 -49 l3
-40 -90 -21 c-49 -12 -119 -29 -155 -40 -36 -10 -78 -21 -95 -25 -48 -11 -55
-21 -48 -76 l6 -49 -31 0 c-17 0 -33 6 -35 13 -4 9 -8 9 -15 -2 -8 -12 -19 -6
-56 30 -100 95 -109 101 -119 75 -4 -10 8 -22 35 -36 41 -21 117 -96 118 -116
0 -16 -35 -45 -56 -46 -11 -1 -45 2 -76 6 -51 7 -58 5 -68 -13 -12 -24 -35
-28 -43 -7 -7 17 33 56 57 56 9 0 14 5 11 11 -5 7 -14 5 -29 -4 -18 -13 -24
-12 -46 2 -14 9 -21 11 -16 4 4 -8 2 -13 -5 -13 -10 0 -10 -3 -1 -12 7 -7 12
-18 12 -25 0 -11 -4 -11 -20 -1 -14 9 -19 20 -16 34 3 12 -2 26 -14 37 -15 12
-18 22 -11 39 7 19 17 24 53 26 40 3 48 -1 71 -28 15 -17 30 -37 35 -45 10
-19 78 -9 86 12 10 26 -4 33 -25 12 -23 -23 -47 -14 -69 27 -12 21 -12 28 -2
31 6 3 12 9 12 14 0 6 -5 7 -12 3 -17 -10 -148 -11 -148 -1 0 12 19 16 85 20
33 1 58 5 56 7 -8 9 38 86 88 148 28 34 51 67 51 72 0 6 7 10 15 10 8 0 15 5
15 10 0 6 -7 10 -15 10 -8 0 -15 5 -15 11 0 7 11 8 30 4 19 -4 30 -3 30 4 0 6
7 11 16 11 8 0 12 -4 9 -10 -3 -5 -1 -10 4 -10 18 0 26 5 24 13 -5 12 15 8 21
-5 3 -10 8 -9 18 3 7 9 25 19 41 23 25 6 39 26 18 26 -4 0 -8 12 -9 28 0 44
-12 69 -38 81 -29 13 -51 6 -59 -20 -10 -31 13 -61 43 -58 37 4 57 -8 41 -27
-6 -7 -15 -11 -20 -8 -5 3 -11 -1 -14 -8 -4 -9 -25 -13 -64 -13 -33 0 -55 3
-49 6 12 8 2 29 -13 29 -6 0 -8 -4 -5 -9 3 -5 -14 -29 -38 -53 -36 -36 -125
-150 -192 -246 -9 -13 -21 -21 -28 -19 -21 8 -70 -19 -114 -64 -29 -30 -42
-38 -42 -26 0 9 -5 17 -10 17 -6 0 -3 14 6 32 24 46 35 88 22 88 -5 0 -32 23
-59 51 -38 38 -48 55 -44 70 5 14 0 26 -14 38 -26 23 -15 36 15 16 20 -13 23
-12 36 8 8 12 19 35 26 51 7 16 15 27 17 24 6 -6 -23 -85 -41 -113 -9 -14 -14
-30 -11 -37 2 -7 18 15 33 49 16 35 31 63 34 63 6 0 30 -50 30 -64 0 -5 12
-24 26 -43 17 -23 23 -40 18 -51 -4 -9 -6 -21 -5 -25 1 -4 -17 -39 -40 -78
-23 -38 -39 -72 -36 -75 3 -4 29 29 57 72 28 44 81 120 118 171 60 83 70 91
94 87 14 -3 29 -1 32 4 3 6 15 8 25 5 10 -3 22 1 27 8 5 9 2 11 -9 6 -30 -11
-18 8 13 21 19 9 30 21 30 33 0 18 -2 18 -27 -6 -16 -14 -40 -25 -55 -25 -28
0 -38 -15 -16 -22 9 -3 9 -6 0 -12 -7 -4 -15 0 -19 11 -3 10 -11 21 -17 26
-35 24 -95 59 -118 68 -16 6 -26 14 -23 19 3 4 -4 10 -14 13 -12 3 -22 -1 -25
-10 -9 -22 -7 -26 8 -20 8 3 17 -1 20 -9 3 -8 16 -14 28 -14 15 -1 37 -17 61
-45 l37 -44 -26 -28 c-14 -15 -33 -40 -42 -55 -9 -16 -19 -28 -22 -28 -3 0
-21 33 -40 73 -19 39 -38 74 -43 75 -4 2 -7 12 -7 23 0 10 -4 19 -10 19 -5 0
-10 -5 -10 -11 0 -14 80 -168 91 -175 12 -7 12 -34 0 -34 -10 0 -95 144 -106
181 -8 23 22 102 36 94 16 -11 20 17 5 40 -20 30 -20 35 -1 35 8 0 19 -9 25
-20 11 -21 30 -27 30 -10 0 6 -13 19 -30 28 -16 9 -31 24 -33 32 -5 23 4 50
17 50 6 0 12 9 13 20 2 18 -1 17 -24 -6 -24 -24 -25 -30 -20 -89 5 -53 3 -68
-13 -87 l-18 -23 -21 48 c-25 57 -27 114 -6 163 12 29 18 33 32 26 20 -11 46
-5 38 8 -3 5 -12 7 -20 4 -7 -3 -22 -1 -33 5 -17 9 -22 6 -36 -23 -9 -19 -16
-53 -16 -76 0 -36 -7 -50 -46 -94 -26 -28 -51 -61 -57 -74 -6 -12 -17 -21 -25
-20 -10 2 -31 -28 -61 -88 l-46 -92 -70 -30 c-38 -16 -125 -47 -192 -69 -110
-34 -124 -41 -132 -66 -9 -24 -6 -32 22 -61 76 -79 222 -169 325 -199 30 -9
74 -34 105 -59 28 -23 54 -44 56 -45 2 -1 -6 -29 -17 -62 -15 -45 -17 -62 -9
-70 17 -14 179 -91 192 -91 5 0 15 -16 21 -35 9 -28 8 -48 -6 -98 l-17 -62
-61 -1 c-36 -1 -71 -8 -84 -16 -21 -14 -55 -94 -44 -105 2 -3 16 3 30 12 l26
17 -6 -30 c-9 -43 12 -50 44 -15 46 50 77 63 145 64 66 1 123 -19 134 -47 3
-7 12 -14 20 -14 9 0 13 6 10 14 -3 8 -9 31 -13 51 -8 43 -27 55 -93 55 -60 0
-62 5 -27 82 35 79 54 91 123 78 84 -15 87 -14 111 35 12 25 27 45 33 45 6 0
8 7 5 16 -5 13 27 125 40 143 10 13 73 -54 121 -127 30 -48 57 -89 59 -91 1
-2 42 2 89 9 81 12 88 11 108 -7 12 -11 38 -29 58 -41 27 -16 43 -38 63 -83
14 -33 26 -66 26 -72 0 -8 -22 -12 -67 -12 -67 0 -68 0 -85 -35 -17 -35 -24
-80 -12 -80 4 0 22 14 41 30 18 17 41 30 51 30 9 0 27 3 40 6 16 5 22 2 22
-10 0 -22 43 -87 55 -83 5 2 14 24 21 49 19 77 24 79 108 37 21 -11 40 -18 42
-16 16 16 -56 109 -79 102 -7 -2 -33 -9 -59 -15 -53 -14 -55 -16 -33 -48 12
-17 13 -26 5 -42 -10 -18 -14 -19 -27 -9 -18 15 -12 87 8 100 10 6 9 23 -2 81
-11 56 -12 83 -4 117 10 40 15 45 68 66 31 13 74 33 96 46 33 18 38 25 32 43
-24 64 -22 75 10 92 27 13 30 20 25 45 -3 16 -3 29 0 29 12 0 51 -24 77 -48
l28 -26 48 17 c27 9 63 17 81 17 42 0 138 76 162 128 27 59 22 85 -32 175 -35
59 -50 94 -50 119 0 27 -6 40 -26 53 -21 13 -24 21 -19 45 7 32 -7 64 -40 96
-17 15 -21 28 -18 48 6 29 -19 66 -44 66 -16 0 -52 38 -53 55 0 6 16 20 36 33
29 19 44 22 75 17 38 -7 40 -6 55 32 9 21 25 46 37 56 20 16 82 47 94 47 3 0
2 -40 -2 -90 -8 -107 1 -210 20 -210 7 0 19 7 26 17 8 9 38 27 67 39 33 16 52
30 52 41 0 9 14 31 30 48 l30 31 -32 73 c-29 66 -30 74 -15 82 9 6 28 30 43
54 23 39 25 52 19 97 -6 45 -14 59 -50 94 -58 57 -111 67 -180 35z m139 -26
c65 -27 86 -113 45 -190 -27 -52 -25 -50 -45 -31 -15 16 -15 18 1 36 37 40 13
111 -48 148 -26 16 -29 16 -65 -3 -23 -12 -38 -29 -40 -43 -2 -12 -7 -20 -11
-18 -13 8 -6 -31 8 -48 16 -19 26 -86 13 -86 -10 0 -42 54 -52 88 -7 24 -8 25
-15 8 -10 -22 16 -71 54 -104 l26 -23 -44 6 c-35 6 -43 5 -39 -7 4 -8 -9 -24
-32 -40 l-37 -27 -32 50 c-38 62 -39 76 -3 92 15 6 30 16 33 20 4 5 10 4 14
-3 9 -15 -12 -30 -42 -30 -13 0 -23 -4 -23 -10 0 -18 50 -10 71 11 16 16 18
23 8 35 -8 10 -8 14 0 14 6 0 11 -5 11 -11 0 -5 4 -8 9 -5 5 3 7 15 4 26 -3
12 1 22 11 26 9 3 16 13 16 21 0 25 40 82 68 98 35 19 91 19 136 0z m-29 -81
c27 -29 31 -54 14 -85 -8 -16 -16 -19 -47 -13 -58 10 -72 21 -72 56 0 66 61
90 105 42z m-595 -99 c0 -8 10 -35 22 -60 12 -24 19 -47 16 -51 -11 -10 -50 7
-45 20 3 7 -2 27 -10 44 -15 32 -12 62 7 62 5 0 10 -7 10 -15z m520 -14 c0 -5
8 -8 18 -7 13 1 18 -9 23 -44 l6 -45 1 43 c1 23 6 42 10 42 18 0 43 -40 40
-63 -1 -13 2 -30 8 -38 5 -8 18 -33 29 -57 18 -41 18 -43 0 -62 -19 -21 -19
-20 -34 41 -9 35 -21 64 -28 66 -8 3 -7 -7 3 -35 7 -22 16 -60 19 -85 l6 -44
-55 -32 c-31 -17 -58 -31 -61 -31 -3 0 -5 81 -5 180 1 102 6 180 11 180 5 0 9
-4 9 -9z m-246 -62 c10 -22 29 -53 43 -69 20 -24 22 -33 13 -50 -10 -20 -12
-20 -35 -3 -13 10 -25 22 -25 27 0 4 -11 21 -25 38 -14 16 -25 36 -25 44 0 9
-7 22 -15 30 -8 8 -12 21 -9 29 10 26 57 -2 78 -46z m-79 -9 c4 -16 11 -32 16
-35 5 -4 9 -14 9 -23 1 -9 17 -29 37 -44 32 -25 33 -28 14 -28 -12 0 -33 12
-47 27 -13 14 -27 23 -31 19 -4 -3 3 -16 16 -27 l22 -21 -26 -20 c-14 -11 -34
-18 -44 -15 -17 4 -26 -21 -12 -33 4 -3 15 -18 25 -35 l19 -30 -35 33 c-29 28
-35 40 -37 80 0 27 -6 63 -11 82 -5 18 -9 34 -7 35 10 9 49 26 51 23 2 -2 8
-11 13 -22 7 -12 13 -15 17 -7 4 6 2 11 -3 11 -6 0 -11 14 -11 30 0 39 16 39
25 0z m-111 -49 c11 -18 18 -121 9 -121 -11 0 -33 44 -33 65 0 19 -24 19 -40
0 -17 -20 -34 -19 -26 2 6 15 4 15 -14 -2 -11 -10 -20 -23 -19 -29 0 -6 3 -6
6 2 2 6 9 12 15 12 6 0 5 -6 -2 -15 -7 -9 -19 -14 -26 -11 -6 2 -28 -13 -48
-36 -38 -41 -45 -54 -23 -42 6 4 1 -4 -13 -19 -20 -20 -41 -28 -93 -35 -69 -9
-75 -6 -57 29 9 16 18 18 52 14 40 -5 41 -4 139 95 87 89 102 100 133 100 19
0 37 -4 40 -9z m-246 -18 c-4 -22 -22 -20 -26 1 -2 10 3 16 13 16 10 0 15 -7
13 -17z m132 14 c0 -1 -24 -29 -54 -61 l-54 -58 14 42 c8 23 12 51 9 61 -6 17
-1 19 39 19 25 0 46 -1 46 -3z m-100 -27 c0 -5 -4 -10 -10 -10 -5 0 -10 5 -10
10 0 6 5 10 10 10 6 0 10 -4 10 -10z m228 -116 c40 -36 72 -72 72 -80 0 -10 7
-13 25 -8 18 4 25 2 25 -9 0 -18 -49 -20 -56 -2 -8 20 -87 11 -122 -13 -16
-12 -34 -22 -39 -22 -5 0 -20 -11 -33 -25 -13 -14 -29 -25 -35 -25 -7 0 -31
-20 -54 -45 -23 -25 -44 -45 -47 -45 -15 0 -53 58 -54 81 0 59 12 89 35 89 32
0 56 10 49 21 -3 5 1 9 8 10 7 0 37 27 66 60 28 32 52 55 52 50 0 -4 -10 -19
-23 -32 -13 -13 -40 -45 -61 -71 -21 -27 -47 -48 -56 -48 -43 0 -60 -53 -35
-112 8 -19 25 -24 25 -8 0 6 -4 10 -10 10 -5 0 -10 20 -10 44 0 46 9 56 56 56
13 0 24 4 24 8 0 4 24 41 54 82 29 41 51 80 49 87 -12 30 28 8 95 -53z m-160
16 c-7 -10 -14 -17 -17 -15 -4 4 18 35 25 35 2 0 -1 -9 -8 -20z m-1078 -32 c0
-7 10 -32 22 -55 l22 -42 -29 -61 -29 -61 -29 33 c-22 26 -27 28 -22 11 8 -29
-8 -36 -34 -14 -25 21 -27 33 -6 25 8 -4 15 -2 15 4 0 6 -5 12 -12 14 -19 7
-1 50 44 105 44 53 58 63 58 41z m610 -75 c0 -13 -4 -12 -49 14 -2 2 2 10 10
19 12 14 14 14 26 -2 7 -10 13 -24 13 -31z m789 -12 c10 -18 6 -31 -11 -31 -5
0 -7 4 -3 9 3 5 1 12 -5 16 -5 3 -10 10 -10 16 0 16 19 10 29 -10z m-129 -8
c0 -5 -31 -23 -69 -42 -50 -25 -71 -41 -76 -58 -4 -18 -11 -23 -24 -18 -12 3
-28 -6 -49 -30 -18 -19 -32 -39 -32 -45 0 -6 -4 -9 -9 -5 -5 3 -11 -5 -13 -17
-4 -28 -28 -36 -28 -9 0 22 97 134 121 139 8 2 21 10 29 19 45 45 150 91 150
66z m-440 -13 c0 -5 -7 -10 -16 -10 -8 0 -12 5 -9 10 3 6 10 10 16 10 5 0 9
-4 9 -10z m547 -27 c12 -8 25 -23 28 -34 4 -10 13 -19 21 -19 19 0 38 -50 24
-64 -6 -6 -10 -6 -11 0 0 5 -6 -9 -12 -31 -17 -55 -63 -82 -112 -64 -86 32
-131 133 -85 192 13 16 32 32 42 36 26 10 78 2 105 -16z m-1512 -12 c-7 -23
-25 -29 -25 -8 0 14 21 39 28 33 2 -3 1 -14 -3 -25z m23 -62 c23 -17 42 -34
42 -38 0 -4 -10 -16 -21 -27 -16 -14 -23 -16 -26 -6 -3 7 -11 19 -19 26 -8 8
-11 22 -8 30 3 9 2 16 -4 16 -5 0 -12 -10 -16 -23 -3 -13 -17 -36 -31 -51 -14
-15 -25 -31 -25 -36 0 -4 -6 -10 -12 -12 -7 -3 10 -25 40 -53 28 -26 52 -55
52 -64 0 -9 -18 2 -48 32 -59 58 -79 55 -111 -16 -28 -62 -28 -97 -3 -163 11
-27 17 -55 15 -62 -3 -7 1 -10 9 -7 8 3 23 -3 33 -15 18 -20 18 -20 -3 -20
-12 0 -45 11 -74 25 -28 14 -57 25 -63 25 -17 0 -150 94 -196 138 -25 23 -38
43 -34 52 3 8 49 28 102 45 53 16 132 44 175 61 73 30 92 32 67 7 -7 -7 -7
-13 -1 -17 6 -3 13 7 17 24 4 16 15 36 26 43 10 8 16 17 12 20 -3 4 -2 7 3 7
6 0 18 20 28 45 11 25 22 45 26 45 3 0 25 -14 48 -31z m1292 12 c0 -6 -5 -13
-12 -17 -8 -5 -7 -10 3 -18 8 -6 22 -28 31 -48 10 -21 22 -38 28 -38 22 0 8
-17 -29 -33 -21 -10 -59 -33 -84 -52 l-46 -35 -21 27 c-11 15 -18 33 -16 40 3
7 -1 13 -9 13 -8 0 -15 9 -15 20 0 11 4 20 9 20 5 0 12 8 15 18 6 18 65 62 84
62 24 0 11 -20 -33 -50 -25 -17 -45 -37 -45 -45 0 -16 16 -21 22 -7 2 4 27 27
57 51 49 41 51 45 32 53 -26 9 -26 17 -3 34 20 16 32 18 32 5z m-750 -26 c-7
-9 -15 -13 -18 -10 -3 2 1 11 8 20 7 9 15 13 18 10 3 -2 -1 -11 -8 -20z m-30
-35 c0 -5 -3 -10 -7 -10 -5 0 -30 -34 -57 -75 -27 -41 -53 -75 -58 -75 -5 0
-6 6 -2 13 18 28 79 113 91 125 7 7 13 18 13 23 0 5 5 9 10 9 6 0 10 -4 10
-10z m-492 -105 c-6 -11 -19 -28 -29 -38 -18 -17 -20 -16 -61 25 -22 23 -36
44 -30 46 6 2 21 19 33 38 l21 34 38 -42 c31 -36 36 -46 28 -63z m42 95 c0
-15 -39 -55 -46 -47 -7 6 27 56 39 57 4 0 7 -5 7 -10z m1518 -35 c6 -14 16
-25 22 -25 14 0 13 -37 -2 -46 -8 -5 -9 -2 -5 9 3 10 2 17 -3 17 -6 0 -10 7
-10 15 0 18 -11 19 -29 3 -11 -11 -13 -10 -7 5 3 10 6 25 6 33 0 22 16 16 28
-11z m-1506 -15 c2 -5 24 -31 50 -58 l47 -49 -26 -52 -25 -53 -29 28 c-16 15
-32 24 -36 20 -8 -7 34 -50 56 -57 12 -4 -27 -119 -40 -119 -13 0 -20 18 -9
25 5 3 10 14 9 23 0 13 -3 12 -11 -5 -9 -18 -17 -21 -37 -17 -20 4 -14 -2 22
-25 38 -25 45 -34 38 -49 -24 -46 -43 -102 -38 -114 4 -13 11 -1 38 71 l13 34
23 -29 c56 -68 56 -68 28 -109 -27 -41 -31 -55 -15 -55 6 0 13 13 16 30 10 48
27 54 53 19 30 -41 39 -29 11 15 -23 38 -25 103 -3 99 7 -2 23 1 36 6 18 7 31
5 46 -5 15 -11 26 -12 40 -4 25 13 44 13 36 0 -3 -5 0 -10 8 -10 17 0 59 44
50 53 -3 4 -2 7 4 7 18 0 23 -28 7 -40 -18 -16 -18 -34 0 -27 11 4 13 -3 9
-34 -3 -23 -2 -39 5 -39 14 0 22 38 15 71 -6 32 9 38 38 16 32 -24 32 -54 1
-87 -16 -16 -33 -30 -37 -30 -5 0 -17 -7 -27 -17 -17 -16 -18 -15 -17 23 5 98
-5 115 -42 72 -16 -20 -20 -21 -30 -8 -8 11 -12 12 -16 3 -9 -23 -33 -14 -33
12 0 14 -5 25 -11 25 -6 0 -9 -6 -6 -14 3 -8 -1 -20 -9 -26 -11 -10 -14 -9
-15 4 -3 36 -4 39 -17 44 -13 4 -9 -51 9 -108 6 -22 7 -23 8 -4 1 26 32 56 38
37 2 -7 11 -9 19 -6 10 4 12 0 8 -11 -3 -9 -2 -16 4 -16 5 0 13 8 16 17 5 12
9 14 18 5 17 -17 28 -15 22 6 -5 15 -4 15 6 -1 6 -10 9 -24 7 -32 -3 -7 0 -21
7 -31 12 -15 17 -16 45 -4 17 7 33 11 35 9 3 -2 -1 -29 -8 -59 -11 -49 -15
-55 -46 -63 -57 -15 -75 -4 -95 58 -9 30 -21 55 -26 55 -5 0 -9 -4 -9 -10 0
-11 -60 -140 -65 -140 -2 0 -44 16 -95 36 -120 46 -174 80 -165 102 4 9 12 30
18 46 9 27 11 28 23 11 8 -10 16 -16 19 -13 12 11 -9 39 -54 72 -25 19 -56 45
-68 58 l-22 24 24 72 c13 39 31 82 39 94 8 13 18 43 22 68 4 25 15 51 25 58
10 6 23 29 29 50 6 20 13 43 15 50 5 14 22 16 27 2z m191 -25 c-3 -9 -8 -14
-10 -11 -3 3 -2 9 2 15 9 16 15 13 8 -4z m1317 -14 c0 -12 -49 -51 -64 -51 -7
0 -30 -8 -52 -19 -59 -28 -161 -61 -197 -64 -28 -2 -34 -8 -44 -42 -7 -22 -15
-52 -18 -67 -6 -32 -20 -35 -46 -12 -17 15 -19 15 -35 0 -9 -9 -17 -16 -18
-14 -1 2 -8 12 -16 22 -8 11 -10 17 -3 13 6 -4 14 -3 18 3 3 5 -3 10 -14 10
-25 0 -24 2 -10 -39 12 -35 21 -38 39 -16 18 22 27 19 39 -16 14 -42 14 -62
-1 -56 -7 2 -12 10 -10 16 1 6 -3 11 -9 11 -5 0 -8 4 -4 9 12 21 -16 19 -86
-4 -90 -30 -95 -30 -102 -5 -3 14 -14 20 -32 20 -23 0 -26 -4 -23 -27 3 -26 0
-28 -51 -35 -30 -5 -56 -7 -57 -5 -2 2 -7 24 -10 49 l-6 46 47 10 c34 7 53 7
66 -1 14 -9 22 -7 37 6 16 14 78 36 152 52 8 2 17 4 20 5 3 1 14 2 26 1 11 -1
28 7 39 19 21 23 44 28 25 5 -7 -9 -10 -18 -7 -21 3 -3 10 4 17 15 6 12 7 21
3 21 -4 0 -2 4 6 9 10 6 11 13 2 29 -15 28 -14 42 4 42 8 0 15 -9 15 -20 0
-11 5 -20 11 -20 6 0 8 11 4 28 -5 25 -1 30 33 50 l39 22 11 -26 c10 -20 9
-26 -4 -31 -12 -5 -13 -7 -3 -14 8 -5 20 -2 29 6 8 7 42 24 75 36 33 12 73 31
90 41 32 19 75 24 75 9z m-452 -29 c6 -16 21 -38 32 -50 26 -28 25 -32 -6 -32
-14 0 -23 4 -19 10 3 6 1 10 -5 10 -6 0 -8 -11 -5 -25 3 -14 7 -36 10 -50 4
-18 1 -25 -9 -25 -17 0 -27 26 -28 70 -1 36 -18 41 -18 5 0 -21 -7 -27 -52
-39 -108 -31 -107 -31 -118 -1 -10 26 -12 26 -33 12 -12 -8 -23 -20 -23 -26
-1 -6 -2 -17 -3 -25 0 -8 -7 -13 -13 -13 -29 2 -98 -16 -98 -25 0 -6 10 -8 23
-5 62 15 97 18 97 9 0 -5 -19 -13 -42 -16 -67 -10 -69 -12 -56 -87 l11 -65 55
8 c29 5 57 10 60 11 4 1 8 -2 10 -8 1 -5 -21 -13 -50 -18 -29 -4 -57 -12 -62
-17 -14 -14 9 -13 70 3 36 9 55 10 68 3 13 -9 20 -7 30 7 7 9 19 17 27 17 8 0
43 9 78 20 47 14 69 16 83 9 15 -8 23 -6 39 12 20 23 26 44 9 34 -5 -3 -10 3
-10 14 0 28 18 27 29 -2 10 -25 31 -45 65 -62 32 -16 32 -49 -1 -73 -61 -42
-233 -91 -397 -112 -48 -6 -89 -10 -90 -8 -2 3 -18 89 -31 162 -3 16 -10 47
-16 70 -6 22 -13 66 -15 96 -2 30 -9 70 -15 88 -6 18 -9 35 -7 36 1 1 80 22
173 45 94 24 177 47 185 52 29 17 55 10 68 -19z m262 2 c12 -12 11 -14 -13
-14 -16 0 -26 -4 -22 -10 3 -5 1 -10 -5 -10 -9 0 -30 40 -30 57 0 10 55 -8 70
-23z m-1436 -119 c-3 -13 -12 -29 -19 -35 -8 -7 -19 -36 -25 -66 -6 -29 -15
-56 -19 -59 -23 -13 -81 95 -81 150 0 12 11 48 25 79 l25 56 50 -51 c41 -41
49 -55 44 -74z m1699 33 c56 -91 61 -107 47 -158 -14 -52 -26 -51 -22 3 2 31
-4 52 -23 82 -24 38 -25 39 -19 10 4 -16 11 -38 15 -47 5 -9 9 -37 9 -61 0
-39 -5 -49 -40 -81 -51 -46 -95 -51 -55 -6 14 15 14 25 0 95 -8 42 -19 83 -26
91 -6 7 -8 17 -5 23 4 5 -3 7 -15 4 -19 -5 -20 -8 -7 -17 15 -11 22 -41 34
-141 7 -58 -3 -71 -73 -98 -39 -15 -43 -15 -62 1 -17 14 -21 31 -23 94 -2 50
-6 74 -13 67 -5 -5 -8 -36 -7 -69 1 -33 1 -60 -2 -60 -17 0 -101 44 -120 63
-23 23 -23 26 -12 88 l11 64 53 6 c29 4 67 12 85 19 18 7 45 18 62 24 16 6 57
25 90 43 33 17 63 32 67 32 4 1 27 -32 51 -71z m-463 -22 c0 -15 -37 -32 -47
-22 -9 8 17 36 33 36 8 0 14 -6 14 -14z m-940 -15 c0 -5 -11 -19 -24 -32 -26
-25 -25 -39 3 -39 18 0 50 -55 38 -66 -3 -3 -24 9 -46 27 -58 46 -64 27 -8
-27 51 -49 59 -73 25 -76 -13 0 -27 -2 -33 -3 -5 -2 -15 -3 -21 -4 -7 0 -14
-11 -17 -23 -5 -18 -8 -19 -21 -8 -23 18 -20 43 9 70 29 27 31 42 9 61 -10 8
-13 21 -9 38 l6 26 -16 -22 c-12 -18 -13 -26 -4 -41 17 -27 4 -72 -21 -72 -31
0 -33 17 -9 85 21 57 26 64 46 59 17 -5 29 2 49 25 25 30 44 40 44 22z m657
-45 c6 -19 7 -39 3 -46 -10 -16 -16 -4 -25 43 -9 47 8 49 22 3z m181 23 c-4
-13 -147 -53 -156 -44 -9 9 4 15 69 34 78 23 92 24 87 10z m-378 -81 c0 -18 6
-58 14 -89 l13 -57 -45 -6 c-79 -11 -163 -4 -162 13 0 3 12 14 26 24 29 22 47
14 18 -8 -19 -14 -18 -14 2 -15 30 0 38 28 17 59 -19 29 -18 52 3 64 8 4 14
17 14 27 0 17 7 20 50 20 50 0 50 0 50 -32z m-370 -63 c7 -8 23 -15 35 -15 26
0 42 -28 21 -36 -8 -3 -24 0 -36 6 -15 8 -25 8 -34 1 -10 -8 -19 -6 -37 8 -20
16 -21 21 -10 35 17 20 45 21 61 1z m140 6 c0 -17 -26 -30 -48 -24 -36 9 -27
33 13 33 19 0 35 -4 35 -9z m20 -26 c-8 -10 -9 -15 -2 -15 6 0 18 10 26 22 15
21 17 21 32 6 15 -15 14 -17 -9 -33 -18 -11 -36 -15 -56 -10 l-31 6 23 30 c12
17 23 25 25 19 2 -6 -2 -17 -8 -25z m623 5 c-13 -12 -154 -52 -161 -46 -9 10
4 17 65 33 32 8 65 19 73 23 17 10 36 2 23 -10z m-177 -25 c7 -39 -2 -58 -16
-35 -13 20 -13 70 0 70 5 0 12 -16 16 -35z m-313 -79 c37 -3 67 -1 67 3 0 4 7
8 15 8 18 0 39 -70 31 -103 -5 -18 -3 -22 9 -18 9 4 15 0 15 -10 0 -21 40 -30
98 -21 26 4 61 9 79 10 52 5 146 26 168 38 23 12 118 38 122 33 2 -2 8 -18 13
-35 l9 -32 -74 -36 c-71 -35 -74 -36 -99 -20 -33 22 -33 37 1 37 28 0 128 43
138 60 10 16 -11 12 -47 -8 -18 -10 -58 -26 -88 -34 -56 -16 -264 -49 -333
-53 -20 -1 -38 -6 -40 -10 -3 -13 116 -5 218 14 90 17 93 17 119 -2 27 -20 27
-19 4 -110 -11 -44 -22 -44 -95 5 l-45 31 57 18 c58 18 84 34 73 45 -3 3 -14
1 -25 -5 -35 -19 -129 -41 -211 -49 -69 -7 -85 -6 -96 7 -13 15 -56 104 -56
116 0 7 -65 65 -99 87 -14 10 -21 18 -14 18 7 0 10 7 6 17 -4 9 -2 14 4 10 5
-3 40 -8 76 -11z m-309 -162 c10 -26 7 -44 -8 -44 -20 0 -29 16 -21 40 8 24
21 26 29 4z m8 -63 c24 -10 57 -17 74 -16 26 1 30 -1 26 -18 -4 -18 -11 -19
-81 -12 -42 4 -80 10 -84 15 -8 7 8 50 18 50 2 0 23 -8 47 -19z m-72 -62 c0
-4 -10 -15 -22 -24 -22 -15 -24 -14 -40 6 -31 37 -24 48 22 37 22 -6 40 -14
40 -19z m-50 -58 c0 -5 -7 -28 -15 -51 -23 -65 -14 -80 49 -80 52 0 76 -12 76
-39 0 -11 -3 -11 -19 3 -13 12 -40 17 -100 19 -44 1 -81 -1 -81 -5 0 -5 -7 -8
-15 -8 -8 0 -30 -14 -50 -31 -36 -32 -42 -29 -25 15 6 16 21 29 42 35 22 6 26
10 12 10 -11 1 -35 -10 -54 -24 -19 -14 -38 -25 -42 -25 -11 0 11 42 26 52 16
11 104 9 111 -2 3 -5 18 -9 33 -9 18 1 21 3 9 6 -10 3 -16 10 -13 16 3 7 13
38 22 70 10 31 21 57 26 57 4 0 8 -4 8 -9z m859 -42 c6 -29 10 -53 9 -55 -2
-1 -13 22 -25 52 -16 41 -18 54 -8 54 8 0 18 -21 24 -51z m152 -99 c10 -6 19
-17 19 -26 0 -12 -4 -12 -25 2 -17 11 -37 15 -60 11 -19 -3 -35 -2 -35 3 0 18
72 25 101 10z m-195 -13 c3 -3 -7 -9 -22 -12 -16 -4 -41 -13 -56 -21 -28 -15
-35 -10 -19 14 13 22 81 35 97 19z"/>
<path d="M2600 2143 c8 -3 18 -11 22 -17 4 -6 10 -7 15 -3 9 10 -16 27 -37 26
-13 -1 -13 -1 0 -6z"/>
<path d="M2646 2122 c-4 -6 7 -26 24 -43 21 -22 30 -27 30 -16 0 23 -45 73
-54 59z"/>
<path d="M2420 1963 c0 -19 11 -43 21 -43 13 0 11 14 -6 36 -8 10 -15 14 -15
7z"/>
<path d="M2370 1905 c-20 -24 -6 -28 15 -5 10 11 13 20 8 20 -6 0 -16 -7 -23
-15z"/>
<path d="M2402 1880 c-12 -12 -22 -26 -22 -33 0 -6 12 1 27 15 32 32 27 47 -5
18z"/>
<path d="M1996 1585 c-11 -8 -18 -17 -15 -19 2 -3 15 4 29 14 14 11 21 20 15
19 -5 0 -19 -6 -29 -14z"/>
<path d="M830 1591 c-5 -11 -10 -27 -10 -36 0 -13 2 -14 14 -3 8 7 12 17 9 21
-3 4 1 14 7 22 8 10 9 15 2 15 -6 0 -16 -9 -22 -19z"/>
<path d="M880 1590 c0 -5 5 -10 10 -10 6 0 10 5 10 10 0 6 -4 10 -10 10 -5 0
-10 -4 -10 -10z"/>
<path d="M885 1560 c-3 -5 -1 -10 4 -10 6 0 11 5 11 10 0 6 -2 10 -4 10 -3 0
-8 -4 -11 -10z"/>
<path d="M2150 1520 c-22 -22 -26 -66 -9 -103 20 -44 92 -71 127 -48 25 16 30
73 10 113 -29 60 -89 77 -128 38z m99 -27 c29 -36 37 -72 20 -88 -12 -12 -14
-10 -15 16 -2 39 -18 57 -38 40 -12 -10 -17 -9 -25 8 -27 49 23 70 58 24z
m-67 -51 c6 -7 19 -10 29 -7 26 9 37 -22 15 -43 -15 -15 -18 -14 -43 4 -29 22
-42 70 -27 102 6 13 9 10 12 -13 2 -16 9 -36 14 -43z"/>
<path d="M298 1213 c7 -3 16 -2 19 1 4 3 -2 6 -13 5 -11 0 -14 -3 -6 -6z"/>
<path d="M413 1110 c14 -11 28 -20 32 -20 4 0 -4 9 -18 20 -14 11 -28 20 -32
20 -4 0 4 -9 18 -20z"/>
<path d="M2030 1370 c-8 -5 -11 -12 -7 -16 4 -4 15 0 24 9 18 18 8 23 -17 7z"/>
<path d="M1991 1341 c-7 -5 -11 -15 -9 -22 3 -10 8 -7 17 9 13 24 12 26 -8 13z"/>
<path d="M727 1365 c3 -8 9 -12 14 -9 12 7 11 11 -5 17 -10 4 -13 1 -9 -8z"/>
<path d="M706 1328 c23 -28 36 -38 48 -38 6 0 -3 14 -19 30 -33 35 -57 41 -29
8z"/>
<path d="M760 1330 c0 -5 5 -10 10 -10 6 0 10 5 10 10 0 6 -4 10 -10 10 -5 0
-10 -4 -10 -10z"/>
<path d="M830 1323 c1 -14 24 -39 53 -58 26 -17 27 -19 12 -42 -9 -13 -14 -30
-12 -36 2 -7 12 5 22 25 l18 37 -41 41 c-42 40 -52 47 -52 33z"/>
<path d="M820 1270 c0 -5 5 -10 11 -10 5 0 7 5 4 10 -3 6 -8 10 -11 10 -2 0
-4 -4 -4 -10z"/>
<path d="M820 1242 c0 -6 -7 -9 -16 -5 -13 5 -15 2 -9 -15 3 -13 2 -22 -4 -22
-5 0 -15 -25 -21 -54 -8 -41 -15 -54 -26 -49 -17 6 -19 -8 -3 -24 8 -8 8 -13
0 -17 -6 -4 -11 -2 -11 3 0 6 -5 11 -11 11 -8 0 -8 -4 0 -14 6 -7 9 -21 5 -29
-3 -9 2 -24 11 -33 16 -16 17 -16 14 2 -4 24 20 94 31 94 5 0 7 7 4 15 -4 9 0
15 10 15 9 0 16 5 16 10 0 6 -4 9 -9 8 -14 -4 -12 8 8 52 14 32 20 37 31 27
11 -9 11 -8 0 8 -8 11 -16 22 -17 24 -2 2 -3 -1 -3 -7z"/>
<path d="M820 1153 c1 -12 51 -46 57 -39 3 3 -5 14 -18 25 -25 21 -39 26 -39
14z"/>
<path d="M770 1021 c0 -16 50 -62 61 -56 5 4 9 9 9 13 0 11 -70 53 -70 43z"/>
<path d="M734 934 c27 -24 51 -42 54 -39 8 8 -75 85 -90 85 -7 -1 9 -21 36
-46z"/>
<path d="M801 904 c0 -11 3 -14 6 -6 3 7 2 16 -1 19 -3 4 -6 -2 -5 -13z"/>
<path d="M1110 910 c0 -5 5 -10 10 -10 6 0 10 5 10 10 0 6 -4 10 -10 10 -5 0
-10 -4 -10 -10z"/>
<path d="M790 784 c7 -7 37 -25 68 -40 30 -14 60 -30 66 -35 32 -26 86 -57 86
-49 0 6 -19 24 -42 40 -24 17 -51 37 -61 46 -10 8 -22 12 -27 9 -5 -3 -11 -1
-15 5 -3 5 -15 10 -26 10 -10 0 -19 4 -19 9 0 5 -9 11 -21 14 -16 4 -18 3 -9
-9z"/>
<path d="M2040 1230 c-12 -8 -10 -10 8 -10 13 0 20 4 17 10 -7 12 -6 12 -25 0z"/>
<path d="M1967 1101 c-4 -17 -3 -21 5 -13 5 5 8 16 6 23 -3 8 -7 3 -11 -10z"/>
<path d="M1778 1043 c6 -2 18 -2 25 0 6 3 1 5 -13 5 -14 0 -19 -2 -12 -5z"/>
<path d="M1867 1280 c16 -6 21 -15 17 -27 -5 -16 -4 -16 10 1 20 24 12 36 -22
35 -26 0 -26 -1 -5 -9z"/>
<path d="M1680 1244 c-74 -18 -145 -36 -158 -39 -13 -3 -20 -9 -18 -14 7 -11
77 2 191 36 50 14 100 26 112 26 12 1 25 7 27 14 7 17 4 17 -154 -23z"/>
<path d="M1815 1230 c3 -5 11 -10 16 -10 6 0 7 5 4 10 -3 6 -11 10 -16 10 -6
0 -7 -4 -4 -10z"/>
<path d="M1510 1158 c0 -7 5 -20 10 -28 8 -12 10 -11 10 7 0 12 -4 25 -10 28
-5 3 -10 0 -10 -7z"/>
<path d="M2027 926 c-9 -9 -20 -16 -26 -16 -5 0 -13 -5 -17 -11 -4 -8 4 -9 27
-4 42 9 57 21 42 36 -7 7 -15 6 -26 -5z"/>
<path d="M1915 914 c4 -11 8 -27 9 -36 0 -10 6 -18 13 -18 18 0 25 18 11 27
-7 4 -13 14 -13 22 0 8 -6 16 -14 19 -11 4 -12 0 -6 -14z"/>
<path d="M1645 870 c-3 -5 -2 -10 4 -10 5 0 13 5 16 10 3 6 2 10 -4 10 -5 0
-13 -4 -16 -10z"/>
<path d="M1851 849 c-18 -6 -31 -13 -28 -16 8 -8 67 7 67 18 0 5 -1 9 -2 8 -2
0 -18 -5 -37 -10z"/>
<path d="M1580 818 c0 -9 5 -20 10 -23 13 -8 13 5 0 25 -8 13 -10 13 -10 -2z"/>
<path d="M1668 803 c12 -2 30 -2 40 0 9 3 -1 5 -23 4 -22 0 -30 -2 -17 -4z"/>
<path d="M690 1191 c0 -5 5 -13 10 -16 6 -3 10 -2 10 4 0 5 -4 13 -10 16 -5 3
-10 2 -10 -4z"/>
<path d="M620 1183 c1 -33 50 -127 50 -96 0 7 -4 14 -9 17 -5 3 -12 21 -15 41
-6 30 -26 60 -26 38z"/>
<path d="M2040 1090 c0 -5 7 -7 15 -4 8 4 15 8 15 10 0 2 -7 4 -15 4 -8 0 -15
-4 -15 -10z"/>
<path d="M2041 1038 c0 -9 9 -24 21 -32 29 -20 44 -21 24 -1 -8 8 -19 15 -25
15 -5 0 -12 8 -14 18 -4 15 -5 15 -6 0z"/>
<path d="M2190 1019 c0 -11 5 -17 10 -14 6 3 10 13 10 21 0 8 -4 14 -10 14 -5
0 -10 -9 -10 -21z"/>
<path d="M2390 1000 c0 -5 5 -10 10 -10 6 0 10 5 10 10 0 6 -4 10 -10 10 -5 0
-10 -4 -10 -10z"/>
<path d="M2218 963 c6 -2 18 -2 25 0 6 3 1 5 -13 5 -14 0 -19 -2 -12 -5z"/>
<path d="M966 1003 c-12 -12 -6 -21 19 -25 14 -3 25 -2 25 3 0 12 -36 30 -44
22z"/>
<path d="M1403 1029 c-12 -5 -7 -8 20 -8 20 -1 37 3 37 8 0 11 -29 11 -57 0z"/>
<path d="M1415 950 c-3 -5 -1 -10 4 -10 6 0 11 5 11 10 0 6 -2 10 -4 10 -3 0
-8 -4 -11 -10z"/>
<path d="M1420 830 c0 -5 7 -7 15 -4 8 4 15 8 15 10 0 2 -7 4 -15 4 -8 0 -15
-4 -15 -10z"/>
<path d="M1440 810 c0 -5 7 -7 15 -4 8 4 15 8 15 10 0 2 -7 4 -15 4 -8 0 -15
-4 -15 -10z"/>
<path d="M2013 2155 c-3 -9 -3 -18 -1 -21 3 -3 8 4 11 16 6 23 -1 27 -10 5z"/>
<path d="M1977 2153 c-4 -3 -7 -11 -7 -17 0 -6 5 -5 12 2 6 6 9 14 7 17 -3 3
-9 2 -12 -2z"/>
<path d="M407 2118 c24 -131 77 -324 91 -335 21 -15 123 -67 176 -88 55 -22
146 -31 146 -15 0 7 -7 10 -15 7 -8 -4 -17 -2 -20 4 -4 5 -10 7 -15 4 -5 -3
-17 -1 -27 4 -26 14 -54 23 -82 28 -41 7 -174 83 -145 83 4 0 1 6 -8 13 -9 6
-19 30 -24 52 -4 22 -8 42 -9 45 -9 29 -16 59 -19 80 -1 14 -7 41 -13 60 -6
19 -14 47 -17 63 -9 39 -27 34 -19 -5z"/>
<path d="M1864 2130 c-25 -10 -41 -30 -25 -30 6 0 11 5 11 11 0 5 4 8 9 5 5
-3 14 1 21 9 14 17 13 17 -16 5z"/>
<path d="M2210 2121 c0 -9 30 -24 36 -18 2 1 -6 8 -16 15 -11 7 -20 8 -20 3z"/>
<path d="M447 2099 c4 -13 8 -18 11 -10 2 7 -1 18 -6 23 -8 8 -9 4 -5 -13z"/>
<path d="M1876 2065 c-9 -26 -7 -32 5 -12 6 10 9 21 6 23 -2 3 -7 -2 -11 -11z"/>
<path d="M496 2043 c-6 -14 -5 -15 5 -6 7 7 10 15 7 18 -3 3 -9 -2 -12 -12z"/>
<path d="M1826 1985 c-16 -14 -27 -27 -24 -30 2 -3 17 9 33 25 35 37 30 39 -9
5z"/>
<path d="M2120 1989 c0 -5 5 -7 10 -4 6 3 10 8 10 11 0 2 -4 4 -10 4 -5 0 -10
-5 -10 -11z"/>
<path d="M830 1960 c0 -5 5 -10 11 -10 5 0 7 5 4 10 -3 6 -8 10 -11 10 -2 0
-4 -4 -4 -10z"/>
<path d="M1785 1929 c-4 -6 -5 -12 -2 -15 2 -3 7 2 10 11 7 17 1 20 -8 4z"/>
<path d="M1021 1774 c-12 -14 -10 -19 11 -40 l24 -25 25 20 c19 16 22 23 13
38 -14 23 -55 27 -73 7z m59 -19 c11 -13 8 -15 -14 -15 -16 0 -26 5 -26 15 0
8 6 15 14 15 7 0 19 -7 26 -15z"/>
<path d="M924 1755 c0 -14 4 -25 8 -25 4 0 7 11 6 25 -3 33 -16 33 -14 0z"/>
<path d="M1823 1757 c-49 -12 -57 -27 -15 -27 16 0 37 9 47 20 10 11 16 19 14
19 -2 -1 -23 -7 -46 -12z"/>
<path d="M1126 1745 c3 -8 15 -17 26 -21 32 -10 32 3 -1 20 -26 14 -30 14 -25
1z"/>
<path d="M795 1719 c-4 -6 -5 -12 -2 -15 2 -3 7 2 10 11 7 17 1 20 -8 4z"/>
<path d="M930 1705 c0 -8 4 -15 10 -15 5 0 7 7 4 15 -4 8 -8 15 -10 15 -2 0
-4 -7 -4 -15z"/>
<path d="M1660 1695 c0 -29 26 -44 43 -25 10 10 8 12 -5 7 -21 -7 -34 11 -19
26 7 7 16 5 31 -8 17 -15 20 -16 20 -3 0 17 -20 28 -51 28 -14 0 -19 -7 -19
-25z"/>
<path d="M1240 1679 c0 -6 -7 -9 -15 -5 -11 4 -15 -2 -15 -24 0 -31 25 -46 59
-35 30 9 34 34 9 56 -26 21 -38 24 -38 8z m30 -40 c0 -15 -4 -19 -16 -15 -9 3
-18 6 -20 6 -2 0 -4 7 -4 15 0 8 9 15 20 15 14 0 20 -7 20 -21z"/>
<path d="M1060 1669 c0 -5 5 -7 10 -4 6 3 10 8 10 11 0 2 -4 4 -10 4 -5 0 -10
-5 -10 -11z"/>
<path d="M935 1659 c-11 -17 1 -21 15 -4 8 9 8 15 2 15 -6 0 -14 -5 -17 -11z"/>
<path d="M1085 1640 c-3 -5 3 -10 14 -10 12 0 21 -5 21 -11 0 -6 7 -9 15 -5 8
3 15 2 15 -3 0 -5 18 -20 40 -35 22 -14 40 -22 40 -17 0 14 -81 81 -91 76 -4
-3 -10 -1 -14 5 -8 13 -32 13 -40 0z"/>
<path d="M1605 1620 c-6 -10 52 -11 76 -1 19 7 14 8 -24 7 -27 0 -50 -3 -52
-6z"/>
<path d="M1390 1580 c0 -11 33 -30 51 -30 7 0 2 9 -11 20 -25 22 -40 26 -40
10z"/>
<path d="M1766 1561 c-4 -7 -5 -15 -2 -18 9 -9 19 4 14 18 -4 11 -6 11 -12 0z"/>
<path d="M1590 1499 c13 -6 33 -17 42 -26 10 -9 18 -12 18 -6 0 18 -36 43 -61
42 l-24 0 25 -10z"/>
<path d="M1670 1500 c0 -13 20 -13 40 0 12 8 9 10 -12 10 -16 0 -28 -4 -28
-10z"/>
<path d="M1508 1474 c-27 -26 11 -84 54 -84 19 0 43 45 32 61 -7 12 -31 12
-39 -1 -3 -5 0 -7 8 -4 22 8 29 -12 11 -27 -21 -17 -47 0 -54 35 -3 15 -8 24
-12 20z"/>
<path d="M1630 1423 c0 -15 -10 -38 -22 -52 -19 -21 -17 -20 10 3 30 28 44 76
22 76 -5 0 -10 -12 -10 -27z"/>
<path d="M1390 1395 c-12 -15 -6 -35 11 -35 5 0 9 7 9 15 0 8 7 15 15 15 10 0
15 -11 15 -35 0 -34 -1 -35 -40 -35 -38 0 -42 3 -60 43 -19 41 -20 42 -20 11
0 -31 30 -69 60 -75 34 -7 70 11 70 34 0 13 5 28 11 34 8 8 4 15 -12 27 -29
20 -43 20 -59 1z"/>
<path d="M1780 1390 c0 -5 5 -10 10 -10 6 0 10 5 10 10 0 6 -4 10 -10 10 -5 0
-10 -4 -10 -10z"/>
<path d="M1705 1370 c3 -5 11 -10 16 -10 6 0 7 5 4 10 -3 6 -11 10 -16 10 -6
0 -7 -4 -4 -10z"/>
<path d="M1508 1343 c7 -3 16 -2 19 1 4 3 -2 6 -13 5 -11 0 -14 -3 -6 -6z"/>
<path d="M1548 1343 c6 -2 18 -2 25 0 6 3 1 5 -13 5 -14 0 -19 -2 -12 -5z"/>
<path d="M1252 1298 c-7 -7 -12 -16 -12 -21 0 -5 7 -1 16 8 9 9 14 18 12 20
-2 3 -10 -1 -16 -7z"/>
<path d="M1470 1300 c-23 -6 -21 -7 18 -17 23 -6 42 -7 42 -2 0 15 -34 26 -60
19z"/>
<path d="M1347 1244 c-11 -11 -8 -49 4 -61 6 -6 18 -9 26 -6 11 4 10 8 -3 18
-18 13 -13 45 6 45 6 0 22 -11 35 -24 27 -27 37 -23 25 9 -6 16 -18 22 -47 23
-21 2 -42 -1 -46 -4z"/>
<path d="M1305 1070 c-20 -9 -20 -9 0 -9 11 0 27 4 35 9 13 9 13 10 0 9 -8 0
-24 -4 -35 -9z"/>
<path d="M2105 740 c3 -5 8 -10 11 -10 2 0 4 5 4 10 0 6 -5 10 -11 10 -5 0 -7
-4 -4 -10z"/>
<path d="M2075 700 c-16 -7 -17 -9 -3 -9 9 -1 20 4 23 9 7 11 7 11 -20 0z"/>
<path d="M1718 463 c7 -3 16 -2 19 1 4 3 -2 6 -13 5 -11 0 -14 -3 -6 -6z"/>
<path d="M670 390 c0 -5 5 -10 10 -10 6 0 10 5 10 10 0 6 -4 10 -10 10 -5 0
-10 -4 -10 -10z"/>
<path d="M691 363 c-1 -9 -22 -13 -72 -13 -39 0 -79 -4 -89 -10 -13 -7 -21 -6
-30 5 -13 16 -65 21 -74 7 -3 -5 11 -7 30 -6 33 3 47 -10 22 -19 -7 -2 30 -5
82 -6 115 -3 132 -5 148 -15 14 -8 16 5 3 20 -5 5 -11 18 -14 29 -3 11 -5 14
-6 8z"/>
<path d="M2145 360 c-3 -5 -19 -10 -36 -10 -19 0 -29 -5 -29 -15 0 -12 35 -14
232 -14 171 0 234 3 240 12 6 9 8 9 8 0 0 -7 8 -13 18 -13 12 0 9 6 -13 20
-21 14 -33 16 -42 9 -6 -6 -17 -8 -22 -4 -6 3 -20 1 -31 -5 -11 -6 -20 -7 -20
-1 0 11 -33 13 -187 13 -64 0 -111 4 -107 9 3 5 3 9 0 9 -3 0 -8 -4 -11 -10z"/>
<path d="M986 341 c-10 -4 -36 -6 -58 -5 -32 2 -37 0 -27 -12 7 -9 20 -11 37
-7 19 4 23 3 18 -8 -4 -8 0 -5 8 5 15 19 16 19 50 1 20 -11 38 -16 42 -12 4 4
2 7 -5 7 -7 0 -9 5 -6 10 4 6 11 8 16 5 5 -4 9 -1 9 6 0 7 -9 9 -22 6 -12 -4
-27 -2 -32 2 -6 5 -19 5 -30 2z"/>
<path d="M1260 339 c0 -4 -10 -6 -23 -4 -12 3 -36 1 -52 -4 l-30 -9 30 -3 c88
-8 465 -3 462 6 -2 6 -56 11 -128 12 -68 1 -139 4 -157 7 -18 3 -30 1 -27 -3
2 -5 -13 -5 -35 -1 -22 4 -40 4 -40 -1z"/>
<path d="M1938 333 c-11 -14 -11 -15 2 -11 8 3 30 -1 48 -8 18 -7 32 -9 32 -3
0 5 -8 12 -17 15 -10 3 -25 9 -35 14 -11 6 -20 4 -30 -7z"/>
<path d="M403 323 c9 -2 23 -2 30 0 6 3 -1 5 -18 5 -16 0 -22 -2 -12 -5z"/>
<path d="M1790 320 c0 -5 5 -10 10 -10 6 0 10 5 10 10 0 6 -4 10 -10 10 -5 0
-10 -4 -10 -10z"/>
</g>
</svg>
